# xmcd
#
# Track frame offsets: 
#        150
#        16990
#        27965
#        40737
#        61122
#        71930
#        94787
#        107547
#        128557
#        155832
#        194710
#
# Disc length: 2761 seconds
#
# Revision: 1
# Processed by: cddbd v1.5.2PL0 Copyright (c) Steve Scherf et al.
# Submitted via: ExactAudioCopyFreeDBPlugin 1.0
#
DISCID=920ac70b
DTITLE=Colin Hodgkinson - The Bottom Line
DYEAR=1998
DGENRE=Blues
TTITLE0=32-20 Blues
TTITLE1=Blues for Jimmy Yancey
TTITLE2=The Black Mirror
TTITLE3=The San Francisco Bay Blues
TTITLE4=Southpaw Rag
TTITLE5=The Sliding Delta
TTITLE6=Jenny's Rag
TTITLE7=Sons And Brothers
TTITLE8=Thight Lines And Screaming Reels
TTITLE9=All Blues
TTITLE10=Are your sure?
EXTD=Bass Solos and Trios
EXTT0=
EXTT1=
EXTT2=
EXTT3=
EXTT4=
EXTT5=
EXTT6=
EXTT7=
EXTT8=
EXTT9=
EXTT10=
PLAYORDER=
